<?xml version="1.0" encoding="utf-8"?>
<!-- Generator: Adobe Illustrator 25.2.0, SVG Export Plug-In . SVG Version: 6.00 Build 0)  -->
<svg version="1.1" id="Layer_1" xmlns="http://www.w3.org/2000/svg" xmlns:xlink="http://www.w3.org/1999/xlink" x="0px" y="0px"
	 viewBox="0 0 512 512" style="enable-background:new 0 0 512 512;" xml:space="preserve">
<style type="text/css">
	.st0{fill:#F0F5FA;}
</style>
<g>
	<path class="st0" d="M221.8,120.4c-0.6-4.2-3.9-16.8-18.5-16.8c-16.5,0-21.8,16-21.8,31.5s5.3,31.5,21.8,31.5
		c11.9,0,16.5-8.3,18.6-19.1h34.6c0,23.1-18.8,47.6-52.3,47.6c-37.1,0-58.1-26.2-58.1-60c0-36.1,22.8-60,58.1-60
		c31.5,0.2,48.7,16.7,51.8,45.4H221.8z"/>
	<path class="st0" d="M262.1,77.7h35.3v39.8h33.1V77.7h35.3v114.5h-35.3v-45.4h-33.1v45.4h-35.3V77.7z"/>
</g>
</svg>
