<?xml version="1.0" encoding="utf-8"?>
<!-- Generator: Adobe Illustrator 25.1.0, SVG Export Plug-In . SVG Version: 6.00 Build 0)  -->
<svg version="1.1" id="Layer_1" xmlns="http://www.w3.org/2000/svg" xmlns:xlink="http://www.w3.org/1999/xlink" x="0px" y="0px"
	 viewBox="0 0 50 60" style="enable-background:new 0 0 50 60;" xml:space="preserve">
<g>
	<path d="M29.6,23.4l-9,9c-1.5,1.5-1.5,3.8,0,5.2c1.5,1.5,3.8,1.5,5.2,0c7.7,6,12.7,12.5,12.5,16c-0.2,3.3,2.3,6.2,5.5,6.3
		c1.8,0.2,3.3-0.5,4.5-1.7c1-1,1.7-2.3,1.7-3.8c0.7-9.9-8.9-19.5-15.9-25.2l0.5-0.5c1.5-1.5,1.5-3.8,0-5.2
		C33.4,22.1,31.1,22.1,29.6,23.4z"/>
	<path d="M18.2,31.4l8.5-8.5L3.9,0c0,0-9.7,12.7,1.7,21.9C10.7,26.1,15,29.2,18.2,31.4z"/>
</g>
</svg>
