<?xml version="1.0" encoding="utf-8"?>
<!-- Generator: Adobe Illustrator 26.0.1, SVG Export Plug-In . SVG Version: 6.00 Build 0)  -->
<svg version="1.1" id="Layer_1" xmlns="http://www.w3.org/2000/svg" xmlns:xlink="http://www.w3.org/1999/xlink" x="0px" y="0px"
	 viewBox="0 0 230 230" style="enable-background:new 0 0 230 230;" xml:space="preserve">
<style type="text/css">
	.st0{opacity:0.32;fill:#FFFFFF;enable-background:new    ;}
	.st1{opacity:0.24;enable-background:new    ;}
</style>
<g>
	<path class="st0" d="M104.3,74.6l-14.6-9.4v17.4v64.9v17.4l14.6-9.4l50.7-32.4l12.5-8l-12.5-8L104.3,74.6z M99.2,147.4V82.6
		l50.6,32.4L99.2,147.4z"/>
	<path class="st0" d="M115,10.5C57.2,10.5,10.5,57.2,10.5,115S57.4,219.5,115,219.5S219.5,172.6,219.5,115S172.8,10.5,115,10.5z
		 M115,209.9c-52.5,0-94.9-42.5-94.9-94.9S62.6,20.2,115,20.2s94.9,42.5,94.9,94.9S167.5,209.9,115,209.9z"/>
	<path class="st1" d="M230,115C230,51.6,178.4,0,115,0S0,51.6,0,115s51.6,115,115,115S230,178.4,230,115z M115,219.5
		c-57.8,0-104.5-46.8-104.5-104.5S57.2,10.5,115,10.5S219.5,57.4,219.5,115S172.8,219.5,115,219.5z"/>
	<path class="st1" d="M115,20.1c-52.5,0-94.9,42.5-94.9,94.9s42.5,94.9,94.9,94.9s94.9-42.5,94.9-94.9S167.5,20.1,115,20.1z
		 M155,122.9l-50.8,32.5l-14.6,9.4v-17.4V82.5V65.1l14.6,9.4l50.6,32.4l12.5,8L155,122.9z"/>
	<polygon class="st1" points="99.2,147.4 149.8,115 99.2,82.6 	"/>
</g>
</svg>
